<?xml version="1.0" encoding="UTF-8"?>
<!DOCTYPE svg PUBLIC "-//W3C//DTD SVG 1.1//EN" "http://www.w3.org/Graphics/SVG/1.1/DTD/svg11.dtd">
<svg xmlns="http://www.w3.org/2000/svg" version="1.1" width="500px" height="500px" style="shape-rendering:geometricPrecision; text-rendering:geometricPrecision; image-rendering:optimizeQuality; fill-rule:evenodd; clip-rule:evenodd" xmlns:xlink="http://www.w3.org/1999/xlink">
<g><path style="opacity:1" fill="#fefefe" d="M -0.5,-0.5 C 166.167,-0.5 332.833,-0.5 499.5,-0.5C 499.5,166.167 499.5,332.833 499.5,499.5C 332.833,499.5 166.167,499.5 -0.5,499.5C -0.5,332.833 -0.5,166.167 -0.5,-0.5 Z"/></g>
<g><path style="opacity:1" fill="#63bc3b" d="M 193.5,147.5 C 204.116,146.208 214.116,148.041 223.5,153C 231.317,159.65 238.65,166.817 245.5,174.5C 238.181,182.319 230.681,189.986 223,197.5C 220.339,178.833 209.839,166.999 191.5,162C 183.279,160.438 178.613,163.772 177.5,172C 180.224,187.057 188.558,197.723 202.5,204C 206.152,204.499 209.818,204.665 213.5,204.5C 213.649,205.552 213.483,206.552 213,207.5C 205.154,214.589 196.154,219.589 186,222.5C 185.167,222.333 184.333,222.167 183.5,222C 179.701,217.199 175.534,212.699 171,208.5C 157.452,180.305 164.952,159.972 193.5,147.5 Z"/></g>
<g><path style="opacity:1" fill="#61bb3a" d="M 288.5,147.5 C 311.312,145.475 326.479,155.142 334,176.5C 336.421,190.489 333.088,202.823 324,213.5C 299.195,237.305 274.695,261.472 250.5,286C 249.833,286.667 249.167,286.667 248.5,286C 241.123,278.958 234.123,271.624 227.5,264C 244.125,246.374 261.125,229.041 278.5,212C 281.133,212.253 283.8,212.253 286.5,212C 290.132,210.516 293.466,208.516 296.5,206C 304.545,196.958 312.211,187.624 319.5,178C 318.833,177.333 318.167,177.333 317.5,178C 311.5,184 305.5,190 299.5,196C 298.207,196.49 296.873,196.657 295.5,196.5C 295.343,195.127 295.51,193.793 296,192.5C 302.348,186.319 308.515,179.986 314.5,173.5C 313.998,172.479 313.332,172.312 312.5,173C 306.5,179 300.5,185 294.5,191C 291.866,191.925 290.699,191.091 291,188.5C 297.681,181.986 304.181,175.319 310.5,168.5C 309.635,167.417 308.635,167.251 307.5,168C 301.5,174 295.5,180 289.5,186C 288.207,186.49 286.873,186.657 285.5,186.5C 285.351,185.448 285.517,184.448 286,183.5C 292.5,177 299,170.5 305.5,164C 305,163.833 304.5,163.667 304,163.5C 293.135,170.69 283.135,179.023 274,188.5C 272.414,190.67 271.08,193.004 270,195.5C 270,198.167 270,200.833 270,203.5C 253.167,220.333 236.333,237.167 219.5,254C 218.5,254.667 217.5,254.667 216.5,254C 207.319,244.652 197.986,235.486 188.5,226.5C 196.492,224.337 203.825,220.837 210.5,216C 231.138,196.362 251.472,176.362 271.5,156C 276.712,152.061 282.379,149.227 288.5,147.5 Z"/></g>
<g><path style="opacity:1" fill="#121212" d="M 221.5,296.5 C 223.857,296.337 226.19,296.503 228.5,297C 229.98,302.188 227.98,304.188 222.5,303C 221.577,300.959 221.244,298.792 221.5,296.5 Z"/></g>
<g><path style="opacity:1" fill="#181818" d="M 259.5,296.5 C 261.857,296.337 264.19,296.503 266.5,297C 267.98,302.188 265.98,304.188 260.5,303C 258.316,301.102 257.983,298.936 259.5,296.5 Z"/></g>
<g><path style="opacity:1" fill="#070707" d="M 166.5,296.5 C 169.167,296.5 171.833,296.5 174.5,296.5C 174.5,307.5 174.5,318.5 174.5,329.5C 171.028,330.037 168.195,329.037 166,326.5C 163.441,329.349 160.274,330.183 156.5,329C 154.185,327.891 152.685,326.057 152,323.5C 151.121,318.713 151.455,314.047 153,309.5C 157.035,304.636 161.368,304.302 166,308.5C 166.499,304.514 166.666,300.514 166.5,296.5 Z"/></g>
<g><path style="opacity:1" fill="#070707" d="M 207.5,296.5 C 210.167,296.5 212.833,296.5 215.5,296.5C 215.5,307.5 215.5,318.5 215.5,329.5C 212.833,329.5 210.167,329.5 207.5,329.5C 207.5,318.5 207.5,307.5 207.5,296.5 Z"/></g>
<g><path style="opacity:1" fill="#0a0a0a" d="M 185.5,305.5 C 197.354,303.038 203.021,307.705 202.5,319.5C 197.456,319.173 192.456,319.506 187.5,320.5C 187.977,321.478 188.643,322.311 189.5,323C 192.894,323.752 196.227,323.585 199.5,322.5C 200.938,324.998 200.604,327.164 198.5,329C 181.878,331.048 176.378,324.215 182,308.5C 183.518,307.837 184.685,306.837 185.5,305.5 Z"/></g>
<g><path style="opacity:1" fill="#080808" d="M 240.5,305.5 C 244.182,305.335 247.848,305.501 251.5,306C 252.624,306.249 253.624,306.749 254.5,307.5C 253.815,309.547 252.649,311.214 251,312.5C 245.919,310.154 243.086,311.654 242.5,317C 243.446,323.825 246.946,325.325 253,321.5C 253.497,323.81 253.663,326.143 253.5,328.5C 238.549,332.382 232.382,326.715 235,311.5C 236.36,308.977 238.193,306.977 240.5,305.5 Z"/></g>
<g><path style="opacity:1" fill="#090909" d="M 278.5,305.5 C 292.21,304.367 297.377,310.367 294,323.5C 292.833,326 291,327.833 288.5,329C 275.74,330.907 270.24,325.407 272,312.5C 273.694,309.642 275.861,307.309 278.5,305.5 Z"/></g>
<g><path style="opacity:1" fill="#0e0e0e" d="M 332.5,305.5 C 337.214,305.353 341.881,305.686 346.5,306.5C 346.753,308.827 346.086,310.827 344.5,312.5C 341.977,310.592 339.31,310.259 336.5,311.5C 340.124,313.555 343.624,315.889 347,318.5C 348.082,326.751 344.416,330.418 336,329.5C 329.366,331.037 327.199,328.704 329.5,322.5C 341.485,324.205 342.151,322.705 331.5,318C 327.309,313.46 327.642,309.293 332.5,305.5 Z"/></g>
<g><path style="opacity:1" fill="#040404" d="M 221.5,305.5 C 224.167,305.5 226.833,305.5 229.5,305.5C 229.5,313.5 229.5,321.5 229.5,329.5C 226.833,329.5 224.167,329.5 221.5,329.5C 221.5,321.5 221.5,313.5 221.5,305.5 Z"/></g>
<g><path style="opacity:1" fill="#070707" d="M 258.5,305.5 C 261.167,305.5 263.833,305.5 266.5,305.5C 266.5,313.5 266.5,321.5 266.5,329.5C 263.833,329.5 261.167,329.5 258.5,329.5C 258.5,321.5 258.5,313.5 258.5,305.5 Z"/></g>
<g><path style="opacity:1" fill="#080808" d="M 300.5,305.5 C 303.167,305.5 305.833,305.5 308.5,305.5C 308.334,311.176 308.501,316.843 309,322.5C 312.387,324.318 314.387,323.318 315,319.5C 315.499,314.845 315.666,310.179 315.5,305.5C 318.167,305.5 320.833,305.5 323.5,305.5C 323.5,313.5 323.5,321.5 323.5,329.5C 321.473,329.662 319.473,329.495 317.5,329C 316.874,328.25 316.374,327.416 316,326.5C 311.585,330.051 306.918,330.384 302,327.5C 300.571,320.281 300.071,312.947 300.5,305.5 Z"/></g>
<g><path style="opacity:1" fill="#dddddd" d="M 189.5,310.5 C 192.95,309.756 194.616,311.09 194.5,314.5C 192.076,314.808 189.743,314.474 187.5,313.5C 188.193,312.482 188.859,311.482 189.5,310.5 Z"/></g>
<g><path style="opacity:1" fill="#e7e7e7" d="M 281.5,311.5 C 286.805,312.077 288.638,315.077 287,320.5C 284.667,324.5 282.333,324.5 280,320.5C 279.207,317.259 279.707,314.259 281.5,311.5 Z"/></g>
<g><path style="opacity:1" fill="#ededed" d="M 161.5,311.5 C 163.39,311.297 164.89,311.963 166,313.5C 166.784,316.76 166.617,319.927 165.5,323C 162.783,324.033 160.949,323.2 160,320.5C 159.207,317.259 159.707,314.259 161.5,311.5 Z"/></g>
<g><path style="opacity:1" fill="#2d2d2d" d="M 238.5,344.5 C 240.337,344.639 240.67,345.306 239.5,346.5C 238.702,346.043 238.369,345.376 238.5,344.5 Z"/></g>
<g><path style="opacity:1" fill="#161616" d="M 256.5,344.5 C 258.337,344.639 258.67,345.306 257.5,346.5C 256.702,346.043 256.369,345.376 256.5,344.5 Z"/></g>
<g><path style="opacity:1" fill="#212121" d="M 231.5,358.5 C 232.319,355.695 232.819,352.695 233,349.5C 233.499,353.821 233.666,358.154 233.5,362.5C 230.634,362.282 227.634,362.115 224.5,362C 224,361.5 223.5,361 223,360.5C 222.175,356.789 222.341,353.122 223.5,349.5C 224.324,352.785 224.824,356.118 225,359.5C 227.552,361.02 229.718,360.687 231.5,358.5 Z"/></g>
<g><path style="opacity:1" fill="#858585" d="M 233.5,362.5 C 233.666,358.154 233.499,353.821 233,349.5C 232.819,352.695 232.319,355.695 231.5,358.5C 231.5,355.167 231.5,351.833 231.5,348.5C 232.5,348.5 233.5,348.5 234.5,348.5C 234.819,353.363 234.486,358.03 233.5,362.5 Z"/></g>
<g><path style="opacity:1" fill="#383838" d="M 238.5,349.5 C 239.8,351.223 240.467,353.39 240.5,356C 240.167,358.167 239.833,360.333 239.5,362.5C 238.508,358.217 238.174,353.884 238.5,349.5 Z"/></g>
<g><path style="opacity:1" fill="#131313" d="M 256.5,349.5 C 257.8,351.223 258.467,353.39 258.5,356C 258.167,358.167 257.833,360.333 257.5,362.5C 256.508,358.217 256.174,353.884 256.5,349.5 Z"/></g>
<g><path style="opacity:1" fill="#717171" d="M 264.5,349.5 C 263.515,353.634 263.182,357.968 263.5,362.5C 262.188,357.985 262.188,353.318 263.5,348.5C 264.107,348.624 264.44,348.957 264.5,349.5 Z"/></g>
<g><path style="opacity:1" fill="#313131" d="M 263.5,362.5 C 263.182,357.968 263.515,353.634 264.5,349.5C 264.435,349.938 264.601,350.272 265,350.5C 271.525,347.33 274.691,349.496 274.5,357C 274.167,358.833 273.833,360.667 273.5,362.5C 272.676,359.215 272.176,355.882 272,352.5C 270.534,350.675 268.701,350.175 266.5,351C 266.173,355.214 265.173,359.048 263.5,362.5 Z"/></g>
<g><path style="opacity:1" fill="#1e1e1e" d="M 288.5,352.5 C 288.5,353.5 288.5,354.5 288.5,355.5C 285.5,355.5 282.5,355.5 279.5,355.5C 279.263,356.791 279.596,357.791 280.5,358.5C 280.611,359.117 280.944,359.617 281.5,360C 283.9,360.186 286.234,360.686 288.5,361.5C 280.248,364.082 276.748,361.082 278,352.5C 281.636,347.2 285.136,347.2 288.5,352.5 Z"/></g>
<g><path style="opacity:1" fill="#e7e7e7" d="M 281.5,350.5 C 284.95,349.756 286.616,351.09 286.5,354.5C 284.076,354.808 281.743,354.474 279.5,353.5C 280.193,352.482 280.859,351.482 281.5,350.5 Z"/></g>
<g><path style="opacity:1" fill="#1f1f1f" d="M 214.5,348.5 C 216.429,348.231 218.095,348.731 219.5,350C 213.046,350.132 210.879,353.298 213,359.5C 215.147,360.113 217.314,360.779 219.5,361.5C 216.06,363.125 213.227,362.458 211,359.5C 209.518,354.774 210.685,351.107 214.5,348.5 Z"/></g>
<g><path style="opacity:1" fill="#696969" d="M 288.5,352.5 C 289.434,353.568 289.768,354.901 289.5,356.5C 285.988,355.945 282.988,356.612 280.5,358.5C 279.596,357.791 279.263,356.791 279.5,355.5C 282.5,355.5 285.5,355.5 288.5,355.5C 288.5,354.5 288.5,353.5 288.5,352.5 Z"/></g>
<g><path style="opacity:1" fill="#272727" d="M 246.5,348.5 C 248.467,348.261 250.301,348.594 252,349.5C 252.688,350.332 252.521,350.998 251.5,351.5C 249.099,349.938 247.099,350.271 245.5,352.5C 247.336,353.919 249.336,355.086 251.5,356C 254.167,358 254.167,360 251.5,362C 249.098,362.814 246.765,362.647 244.5,361.5C 246.743,360.526 249.076,360.192 251.5,360.5C 251.719,359.325 251.386,358.325 250.5,357.5C 246.291,356.8 244.124,354.467 244,350.5C 244.995,349.934 245.828,349.267 246.5,348.5 Z"/></g>
</svg>
