<svg width="199" height="223" viewBox="0 0 199 223" fill="none" xmlns="http://www.w3.org/2000/svg">
<path fill-rule="evenodd" clip-rule="evenodd" d="M72.8872 154.581C69.1068 155.598 69.6796 160.726 73.6875 161.747C78.3526 162.937 81.3082 157.196 77.1845 154.955C76.1038 154.368 75.075 153.941 74.8992 154.007C74.7225 154.073 73.8175 154.331 72.8872 154.581ZM110.381 155.009C107.097 156.937 108.859 162.139 112.798 162.139C114.529 162.139 117.759 159.557 117.73 158.198C117.667 155.38 113.116 153.405 110.381 155.009ZM15.1606 161.181C15.1606 166.875 15.0153 167.297 13.5649 165.823C11.1192 163.34 5.75022 163.778 3.06576 166.68C-1.00511 171.081 -1.02644 182.835 3.0292 186.954C5.44958 189.412 10.7738 189.577 13.2815 187.272C14.9818 185.709 15.1657 185.709 15.7558 187.272C16.1732 188.375 17.586 188.959 19.8398 188.959H23.2861V171.939V154.919H19.2233H15.1606V161.181ZM56.8038 171.939V188.959H60.8665H64.9293V171.939V154.919H60.8665H56.8038V171.939ZM33.5547 165.642C26.3402 169.704 26.7455 184.406 34.1661 187.84C36.7744 189.047 45.4667 189.354 48.0871 188.333C49.0205 187.969 49.6939 186.502 49.6939 184.831C49.6939 182.044 49.5771 181.982 45.9085 182.823C41.9077 183.739 37.5108 182.354 36.7348 179.933C36.428 178.978 38.3183 178.644 44.0234 178.644H51.7253V175.498C51.7253 171.609 49.3059 166.679 46.7027 165.265C43.9837 163.787 36.4687 164.002 33.5547 165.642ZM71.0234 176.581V188.959H75.0861H79.1489V176.581V164.202H75.0861H71.0234V176.581ZM89.4175 165.642C85.8707 167.638 84.3035 171.222 84.2629 177.434C84.2324 182.157 84.6438 183.352 87.1962 185.944C89.6856 188.471 90.9857 188.959 95.2384 188.959C102.332 188.959 103.525 188.296 103.525 184.35V180.994L99.3672 182.121C95.6883 183.118 95.0444 183.02 93.7809 181.265C92.0705 178.889 91.9394 175.166 93.465 172.271C94.3883 170.519 95.2262 170.265 98.387 170.778C101.795 171.331 102.325 171.11 103.421 168.667C104.397 166.489 104.378 165.764 103.323 165.085C101.263 163.758 92.1131 164.124 89.4175 165.642ZM108.604 176.581V188.959H112.667H116.729V176.581V164.202H112.667H108.604V176.581ZM125.824 167.039C120.27 172.079 120.69 182.168 126.653 186.931C128.384 188.315 130.758 188.959 134.117 188.959C138.124 188.959 139.661 188.398 142.359 185.949C145.426 183.167 145.676 182.459 145.676 176.581C145.676 170.703 145.426 169.995 142.359 167.212C139.638 164.743 138.137 164.202 133.996 164.202C129.926 164.202 128.345 164.751 125.824 167.039ZM151.263 174.518C151.263 183.458 151.534 185.109 153.294 186.896C155.775 189.416 162.021 189.656 165.256 187.353C167.299 185.9 167.514 185.9 167.514 187.353C167.514 188.501 168.528 188.959 171.069 188.959H174.624V176.581V164.202H170.691H166.759L166.284 172.55C165.802 180.988 164.774 183.09 161.42 182.499C160.229 182.289 159.832 180.261 159.603 173.217L159.309 164.202H155.286H151.263V174.518ZM182.195 166.735C177.843 171.154 179.561 175.839 186.738 179.126C192.584 181.804 191.99 183.175 185.288 182.473L179.702 181.888V184.797C179.702 188.282 181.1 188.959 188.281 188.959C195.183 188.959 199 186.235 199 181.307C199 177.46 197.096 175.329 191.558 172.979C185.288 170.318 188.673 168.411 195.17 170.942C196.047 171.285 197.061 170.491 197.773 168.904C198.768 166.685 198.656 166.151 197.005 165.254C195.941 164.676 192.734 164.202 189.879 164.202C185.722 164.202 184.191 164.707 182.195 166.735ZM41.993 169.986C45.0634 171.183 43.7816 173.486 40.0449 173.486C36.0279 173.486 35.8471 173.255 38.0857 170.981C39.9068 169.132 39.8428 169.149 41.993 169.986ZM13.9418 171.63C14.6121 172.31 15.1606 174.832 15.1606 177.234C15.1606 180.81 14.7614 181.728 12.9525 182.311C8.72924 183.673 6.13213 175.582 9.64641 172.012C11.562 170.067 12.3359 169.999 13.9418 171.63ZM137.141 173.228C139.198 178.716 135.075 185.31 131.718 181.901C130.539 180.703 130.297 173.329 131.379 171.552C132.725 169.338 136.045 170.304 137.141 173.228ZM88.2901 205.464C88.2901 206.031 88.7471 206.495 89.3058 206.495C89.8644 206.495 90.3214 206.031 90.3214 205.464C90.3214 204.897 89.8644 204.432 89.3058 204.432C88.7471 204.432 88.2901 204.897 88.2901 205.464ZM106.572 205.464C106.572 206.031 107.03 206.495 107.588 206.495C108.147 206.495 108.604 206.031 108.604 205.464C108.604 204.897 108.147 204.432 107.588 204.432C107.03 204.432 106.572 204.897 106.572 205.464ZM62.1087 210.165C60.4369 211.354 59.8508 212.806 59.8508 215.764C59.8508 220.544 61.9442 223 66.0171 223C70.0686 223 69.8005 221.146 65.691 220.744C62.773 220.458 62.3525 220.024 62.0671 217.002C61.6669 212.771 63.5205 210.305 66.6448 210.911C69.2947 211.426 69.8452 210.143 67.3852 209.185C65.0857 208.288 64.6256 208.374 62.1087 210.165ZM96.4156 209.31C94.8301 209.923 93.4112 211.618 93.3837 212.929C93.3756 213.348 95.2811 214.917 97.6181 216.415C101.406 218.843 101.682 219.278 100.156 220.411C99.2148 221.11 97.2342 221.447 95.7554 221.16C93.8997 220.8 93.2893 221.004 93.7849 221.819C94.823 223.523 101.023 223.272 102.499 221.466C104.305 219.254 103.096 217.061 98.967 215.061C94.6808 212.986 94.8402 211.133 99.3052 211.148C102.742 211.158 103.519 210.204 100.903 209.185C99.0757 208.473 98.5445 208.487 96.4156 209.31ZM117.237 209.52C116.12 209.969 114.635 210.118 113.936 209.853C113.001 209.496 112.667 211.162 112.667 216.185C112.667 220.041 113.107 223 113.682 223C114.241 223 114.698 221.405 114.698 219.457C114.698 214.245 116.339 210.622 118.7 210.622C121.331 210.622 122.823 213.583 122.823 218.806C122.823 221.112 123.281 223 123.839 223C124.398 223 124.855 220.679 124.855 217.842C124.855 214.06 124.313 212.135 122.823 210.622C120.612 208.376 120.258 208.306 117.237 209.52ZM130.395 211.091C125.506 216.056 128.231 223 135.07 223C137.273 223 139.074 222.536 139.074 221.968C139.074 221.401 137.491 220.937 135.555 220.937C133.076 220.937 131.715 220.327 130.949 218.874C129.936 216.952 130.177 216.811 134.468 216.811C138.676 216.811 139.074 216.593 139.074 214.291C139.074 212 135.862 208.558 133.724 208.558C133.264 208.558 131.767 209.698 130.395 211.091ZM72.0391 214.3C72.0391 221.519 73.3056 223.132 78.6959 222.779L83.2096 222.484L83.2106 216.037C83.2116 212.426 82.7647 209.59 82.1959 209.59C81.6373 209.59 81.1803 211.894 81.1803 214.712C81.1803 218.561 80.7323 220.077 79.3764 220.813C76.0409 222.626 74.0704 220.354 74.0704 214.696C74.0704 211.888 73.6134 209.59 73.0548 209.59C72.4961 209.59 72.0391 211.71 72.0391 214.3ZM88.2901 216.295C88.2901 220.078 88.7329 223 89.3058 223C89.8786 223 90.3214 220.078 90.3214 216.295C90.3214 212.512 89.8786 209.59 89.3058 209.59C88.7329 209.59 88.2901 212.512 88.2901 216.295ZM106.572 216.295C106.572 220.078 107.015 223 107.588 223C108.161 223 108.604 220.078 108.604 216.295C108.604 212.512 108.161 209.59 107.588 209.59C107.015 209.59 106.572 212.512 106.572 216.295ZM136.853 212.943C137.125 214.392 136.469 214.748 133.527 214.748C130.14 214.748 129.947 214.586 130.981 212.622C132.333 210.058 136.353 210.277 136.853 212.943Z" fill="#131A29"/>
<path fill-rule="evenodd" clip-rule="evenodd" d="M42.941 0.625647C33.187 3.19965 21.495 13.1146 17.202 22.4506C15.356 26.4666 15 29.0216 15 38.2416C15 51.9016 16.3 55.1016 26.535 66.6416C33.622 74.6326 33.959 74.8686 37.395 74.2626C42.482 73.3646 49.984 69.5477 57.191 64.1907C64.867 58.4857 65.217 56.7457 58.691 56.7317C42.063 56.6977 22.746 32.4386 28.944 19.3756C33.595 9.57465 50.678 13.3137 62.789 26.7837C68.172 32.7717 70.354 37.2146 71.131 43.7716C71.458 46.5376 72.031 48.9876 72.403 49.2176C72.775 49.4476 78.223 44.4646 84.51 38.1446L95.941 26.6536L85.231 16.1607C71.859 3.05965 66.894 0.467651 54.441 0.0916506C49.766 -0.0503494 44.591 0.190647 42.941 0.625647ZM133.728 1.68365C125.345 4.75665 121.351 8.17464 93.941 35.7326C79.641 50.1096 65.189 64.0837 61.826 66.7857C55.055 72.2257 44.299 77.7396 40.454 77.7406C38.355 77.7416 40.227 80.0066 52.441 92.2416C60.402 100.217 67.351 106.742 67.884 106.742C68.417 106.742 80.486 95.1536 94.705 80.9916C118.843 56.9496 120.52 55.0486 119.991 52.3246C119.136 47.9246 122.681 41.6787 129.795 35.0487C138.679 26.7697 154.273 14.6606 154.849 15.5936C155.118 16.0276 150.861 20.8426 145.389 26.2936C139.918 31.7446 135.441 36.7376 135.441 37.3896C135.441 40.7306 138.888 38.5806 148.084 29.5036C154.556 23.1146 158.666 19.7626 159.441 20.2416C160.255 20.7446 157.283 24.3756 150.423 31.2596C141.117 40.5976 139.18 43.7416 142.732 43.7416C143.377 43.7416 148.286 39.3766 153.641 34.0426C158.995 28.7086 163.705 24.6726 164.108 25.0746C164.51 25.4776 160.474 30.1876 155.14 35.5416C145.797 44.9196 143.491 48.7416 147.173 48.7416C148.126 48.7416 153.286 44.3766 158.641 39.0426C163.995 33.7086 168.608 29.5756 168.892 29.8596C169.603 30.5696 153.123 51.1987 147.345 56.8307C141.423 62.6047 136.298 65.1246 132.086 64.3346C129.05 63.7656 127.896 64.7726 102.679 90.0036L76.432 116.265L87.881 127.683L99.331 139.1L136.636 102.252C157.154 81.9856 175.629 63.1836 177.693 60.4696C182.892 53.6326 184.772 46.5536 184.256 35.7586C183.753 25.2246 180.895 18.5966 173.723 11.3276C166.529 4.03664 158.068 0.404641 147.458 0.0536409C141.015 -0.159359 137.671 0.237646 133.728 1.68365Z" fill="#63BC3B"/>
</svg>
